<?xml version="1.0" encoding="iso-8859-1"?>
<!-- Generator: Adobe Illustrator 19.0.0, SVG Export Plug-In . SVG Version: 6.00 Build 0)  -->
<svg version="1.1" id="Layer_1" xmlns="http://www.w3.org/2000/svg" xmlns:xlink="http://www.w3.org/1999/xlink" x="0px" y="0px"
	 viewBox="0 0 512 512" style="enable-background:new 0 0 512 512;" xml:space="preserve">
<circle style="fill:#7E8488;" cx="129.32" cy="356.289" r="68.619"/>
<g>
	<circle style="fill:#595E62;" cx="382.68" cy="160.99" r="68.619"/>
	<path style="fill:#595E62;" d="M382.68,287.67c37.793,0,68.619,30.826,68.619,68.619c0,18.896-7.706,36.104-20.163,48.455
		c-12.351,12.457-29.559,20.163-48.455,20.163H129.32c37.899,0,68.619-30.72,68.619-68.619s-30.72-68.619-68.619-68.619H382.68z"/>
</g>
<path style="fill:#36C63F;" d="M129.32,92.371H382.68c-37.899,0-68.619,30.72-68.619,68.619s30.72,68.619,68.619,68.619H129.32
	c-37.793,0-68.619-30.826-68.619-68.619c0-18.896,7.706-36.104,20.163-48.455C93.216,100.078,110.423,92.371,129.32,92.371z"/>
<path style="fill:#2ECC71;" d="M504.082,18.474v475.052c0,5.806-4.751,10.557-10.557,10.557H18.474
	c-5.806,0-10.557-4.751-10.557-10.557V18.474c0-5.806,4.751-10.557,10.557-10.557h475.052
	C499.332,7.918,504.082,12.668,504.082,18.474z M451.299,160.99c0-37.899-30.72-68.619-68.619-68.619H129.32
	c-18.896,0-36.104,7.706-48.455,20.163c-12.457,12.351-20.163,29.559-20.163,48.455c0,37.793,30.826,68.619,68.619,68.619H382.68
	C420.579,229.608,451.299,198.888,451.299,160.99z M451.299,356.289c0-37.793-30.826-68.619-68.619-68.619H129.32
	c-37.899,0-68.619,30.72-68.619,68.619s30.72,68.619,68.619,68.619H382.68c18.896,0,36.104-7.706,48.455-20.163
	C443.593,392.393,451.299,375.185,451.299,356.289z"/>
<path style="fill:#27AE60;" d="M362.079,424.907H129.32c-37.899,0-68.619-30.72-68.619-68.619s30.72-68.619,68.619-68.619h84.428
	c-14.167-18.523-27.252-37.903-39.184-58.062H129.32c-37.793,0-68.619-30.826-68.619-68.619c0-18.896,7.706-36.104,20.163-48.455
	c9.335-9.414,21.45-16.101,34.966-18.812c-8.057-27.814-14.117-56.459-18.039-85.805H18.474c-5.806,0-10.557,4.751-10.557,10.557
	v475.052c0,5.806,4.751,10.557,10.557,10.557h475.052c5.806,0,10.557-4.751,10.557-10.557v-1.37
	C453.417,476.057,405.783,453.261,362.079,424.907z"/>
<path style="fill:#00AE4D;" d="M314.062,160.99H60.701c0,37.793,30.826,68.619,68.619,68.619H382.68
	C344.782,229.608,314.062,198.888,314.062,160.99z"/>
<path style="fill:#494E52;" d="M129.32,424.907H382.68c18.896,0,36.104-7.706,48.455-20.163
	c12.457-12.351,20.163-29.559,20.163-48.455H197.938C197.938,394.187,167.218,424.907,129.32,424.907z"/>
<path d="M493.526,0H18.474C8.288,0,0,8.288,0,18.474v475.052C0,503.712,8.288,512,18.474,512h475.052
	c10.186,0,18.474-8.288,18.474-18.474V18.474C512,8.288,503.712,0,493.526,0z M496.165,493.526c0,1.43-1.209,2.639-2.639,2.639
	H18.474c-1.43,0-2.639-1.209-2.639-2.639V18.474c0-1.43,1.209-2.639,2.639-2.639h475.052c1.43,0,2.639,1.209,2.639,2.639V493.526z"
	/>
<path d="M382.68,84.454H129.32c-20.482,0-39.688,7.992-54.03,22.458c-14.513,14.39-22.506,33.596-22.506,54.078
	c0,42.203,34.334,76.536,76.536,76.536H382.68c42.203,0,76.536-34.334,76.536-76.536S424.883,84.454,382.68,84.454z M129.32,221.691
	c-33.471,0-60.701-27.23-60.701-60.701c0-16.228,6.329-31.439,17.868-42.88c11.394-11.492,26.605-17.821,42.833-17.821H336.14
	c-18.22,14.003-29.996,35.997-29.996,60.701s11.776,46.698,29.996,60.701H129.32z M382.68,221.691
	c-33.471,0-60.701-27.23-60.701-60.701s27.23-60.701,60.701-60.701s60.701,27.23,60.701,60.701S416.151,221.691,382.68,221.691z"/>
<path d="M382.68,279.753H129.32c-42.203,0-76.536,34.334-76.536,76.536s34.334,76.536,76.536,76.536H382.68
	c20.482,0,39.688-7.992,54.03-22.458c14.513-14.39,22.506-33.596,22.506-54.078C459.217,314.086,424.883,279.753,382.68,279.753z
	 M68.619,356.289c0-33.471,27.23-60.701,60.701-60.701s60.701,27.23,60.701,60.701s-27.23,60.701-60.701,60.701
	S68.619,389.76,68.619,356.289z M425.513,399.169c-11.394,11.492-26.605,17.821-42.833,17.821H175.86
	c18.22-14.003,29.996-35.997,29.996-60.701s-11.776-46.698-29.996-60.701H382.68c33.471,0,60.701,27.23,60.701,60.701
	C443.381,372.516,437.053,387.728,425.513,399.169z"/>
<g>
	<path style="fill:#FFFFFF;" d="M129.32,395.876c-21.829,0-39.588-17.758-39.588-39.588s17.758-39.588,39.588-39.588v15.835
		c-13.098,0-23.753,10.655-23.753,23.753s10.655,23.753,23.753,23.753c13.098,0,23.753-10.655,23.753-23.753h15.835
		C168.907,378.118,151.149,395.876,129.32,395.876z"/>
	<path style="fill:#FFFFFF;" d="M382.68,200.577c-21.829,0-39.588-17.758-39.588-39.588h15.835
		c0,13.098,10.655,23.753,23.753,23.753s23.753-10.655,23.753-23.753c0-13.098-10.655-23.753-23.753-23.753v-15.835
		c21.829,0,39.588,17.758,39.588,39.588S404.51,200.577,382.68,200.577z"/>
	<rect x="34.309" y="36.948" style="fill:#FFFFFF;" width="21.113" height="15.835"/>
	<rect x="456.577" y="36.948" style="fill:#FFFFFF;" width="21.113" height="15.835"/>
	<rect x="34.309" y="459.217" style="fill:#FFFFFF;" width="21.113" height="15.835"/>
	<rect x="456.577" y="459.217" style="fill:#FFFFFF;" width="21.113" height="15.835"/>
</g>
<g>
</g>
<g>
</g>
<g>
</g>
<g>
</g>
<g>
</g>
<g>
</g>
<g>
</g>
<g>
</g>
<g>
</g>
<g>
</g>
<g>
</g>
<g>
</g>
<g>
</g>
<g>
</g>
<g>
</g>
</svg>
