<?xml version="1.0" encoding="iso-8859-1"?>
<!-- Generator: Adobe Illustrator 19.0.0, SVG Export Plug-In . SVG Version: 6.00 Build 0)  -->
<svg version="1.1" id="Layer_1" xmlns="http://www.w3.org/2000/svg" xmlns:xlink="http://www.w3.org/1999/xlink" x="0px" y="0px"
	 viewBox="0 0 512 512" style="enable-background:new 0 0 512 512;" xml:space="preserve">
<g>
	<g>
		<path fill="#BDC3C7" d="M493.526,0H18.474C8.288,0,0,8.288,0,18.474v475.052C0,503.712,8.288,512,18.474,512h475.052
			c10.186,0,18.474-8.288,18.474-18.474V18.474C512,8.288,503.712,0,493.526,0z M496.165,493.526c0,1.43-1.209,2.639-2.639,2.639
			H18.474c-1.43,0-2.639-1.209-2.639-2.639V18.474c0-1.43,1.209-2.639,2.639-2.639h475.052c1.43,0,2.639,1.209,2.639,2.639V493.526z
			"/>
	</g>
</g>
<g>
	<g>
		<path fill="#BDC3C7" d="M382.68,84.454H129.32c-20.482,0-39.688,7.992-54.03,22.458c-14.513,14.39-22.506,33.596-22.506,54.078
			c0,42.203,34.334,76.536,76.536,76.536H382.68c42.203,0,76.536-34.334,76.536-76.536S424.883,84.454,382.68,84.454z
			 M129.32,221.691c-33.471,0-60.701-27.23-60.701-60.701c0-16.228,6.329-31.439,17.868-42.88
			c11.394-11.492,26.605-17.821,42.833-17.821H336.14c-18.22,14.003-29.996,35.997-29.996,60.701s11.776,46.698,29.996,60.701
			H129.32z M382.68,221.691c-33.471,0-60.701-27.23-60.701-60.701s27.23-60.701,60.701-60.701s60.701,27.23,60.701,60.701
			S416.151,221.691,382.68,221.691z"/>
	</g>
</g>
<g>
	<g>
		<path fill="#BDC3C7" d="M382.68,279.753H129.32c-42.203,0-76.536,34.334-76.536,76.536s34.334,76.536,76.536,76.536H382.68
			c20.482,0,39.688-7.992,54.03-22.458c14.513-14.39,22.506-33.596,22.506-54.078C459.216,314.086,424.883,279.753,382.68,279.753z
			 M129.32,416.99c-33.471,0-60.701-27.23-60.701-60.701s27.23-60.701,60.701-60.701s60.701,27.23,60.701,60.701
			S162.791,416.99,129.32,416.99z M425.513,399.169c-11.394,11.492-26.605,17.821-42.833,17.821H175.86
			c18.22-14.003,29.996-35.997,29.996-60.701s-11.776-46.698-29.996-60.701H382.68c33.471,0,60.701,27.23,60.701,60.701
			C443.381,372.516,437.053,387.728,425.513,399.169z"/>
	</g>
</g>
<g>
	<g>
		<path fill="#BDC3C7" d="M153.072,356.289c0,13.098-10.655,23.753-23.753,23.753c-13.098,0-23.753-10.655-23.753-23.753
			s10.655-23.753,23.753-23.753v-15.835c-21.829,0-39.588,17.758-39.588,39.588s17.758,39.588,39.588,39.588
			s39.588-17.758,39.588-39.588H153.072z"/>
	</g>
</g>
<g>
	<g>
		<path fill="#BDC3C7" d="M382.68,121.402v15.835c13.098,0,23.753,10.655,23.753,23.753c0,13.098-10.655,23.753-23.753,23.753
			s-23.753-10.655-23.753-23.753h-15.835c0,21.829,17.758,39.588,39.588,39.588s39.588-17.758,39.588-39.588
			C422.268,139.161,404.51,121.402,382.68,121.402z"/>
	</g>
</g>
<g>
	<g>
		<rect fill="#BDC3C7" x="34.309" y="36.948" width="21.113" height="15.835"/>
	</g>
</g>
<g>
	<g>
		<rect fill="#BDC3C7" x="456.577" y="36.948" width="21.113" height="15.835"/>
	</g>
</g>
<g>
	<g>
		<rect fill="#BDC3C7" x="34.309" y="459.216" width="21.113" height="15.835"/>
	</g>
</g>
<g>
	<g>
		<rect fill="#BDC3C7" x="456.577" y="459.216" width="21.113" height="15.835"/>
	</g>
</g>
<g>
</g>
<g>
</g>
<g>
</g>
<g>
</g>
<g>
</g>
<g>
</g>
<g>
</g>
<g>
</g>
<g>
</g>
<g>
</g>
<g>
</g>
<g>
</g>
<g>
</g>
<g>
</g>
<g>
</g>
</svg>
